<svg xmlns="http://www.w3.org/2000/svg" width="36" height="37" viewBox="0 0 36 37"><defs><style>.a,.b{fill:#ff4545;}.a{font-size:12px;font-family:RobotoCondensed-Bold, Roboto Condensed;font-weight:700;letter-spacing:0.03em;}</style></defs><g transform="translate(-290 -627)"><text class="a" transform="translate(308 661)"><tspan x="-17.242" y="0">Cancel</tspan></text><path class="b" d="M12.571,1.928a10,10,0,1,0,10,10,10,10,0,0,0-10-10Zm0,18.125A8.125,8.125,0,1,1,20.7,11.928a8.125,8.125,0,0,1-8.125,8.125ZM15.7,6.928l-3.125,3.125L9.446,6.928,7.571,8.8,10.7,11.928,7.571,15.053l1.875,1.875L12.571,13.8,15.7,16.928l1.875-1.875-3.125-3.125L17.571,8.8Z" transform="translate(295.429 625.072)"/></g></svg>