<svg xmlns="http://www.w3.org/2000/svg" width="24" height="24" viewBox="0 0 24 24"><defs><style>.a,.b{fill:none;}.b{stroke-linecap:round;}.c,.d{stroke:none;}.d{fill:#e32f8b;}</style></defs><rect class="a" width="24" height="24"/><g transform="translate(3.141 3)"><g class="b" transform="translate(-8 0)"><path class="c" d="M20.008,3.473c-1.884,0-3.44-1.223-5.808-1.223a6.833,6.833,0,0,0-2.392.422,1.969,1.969,0,1,0-2.964.912V17.157A.844.844,0,0,0,9.688,18h.562a.844.844,0,0,0,.844-.844V13.838a9.823,9.823,0,0,1,4.023-.778c1.884,0,3.44,1.223,5.808,1.223a7.36,7.36,0,0,0,4.307-1.436,1.123,1.123,0,0,0,.487-.927V3.373a1.125,1.125,0,0,0-1.6-1.02A10.235,10.235,0,0,1,20.008,3.473Z"/><path class="d" d="M 9.968730926513672 0.0003490447998046875 C 8.881322860717773 0.0003490447998046875 8.000001907348633 0.8817043304443359 8.000001907348633 1.969093322753906 C 8.000001907348633 2.637972831726074 8.333883285522461 3.22856330871582 8.843751907348633 3.584342956542969 L 8.843751907348633 17.15660285949707 C 8.843751907348633 17.62260246276855 9.221502304077148 18.00035285949707 9.687501907348633 18.00035285949707 L 10.25000190734863 18.00035285949707 C 10.71599197387695 18.00035285949707 11.09375190734863 17.62260246276855 11.09375190734863 17.15660285949707 L 11.09375190734863 13.83785247802734 C 12.08906173706055 13.41372299194336 13.32906341552734 13.06012344360352 15.11686325073242 13.06012344360352 C 17.00081253051758 13.06012344360352 18.55669403076172 14.28296279907227 20.92527389526367 14.28296279907227 C 22.61871337890625 14.28296279907227 23.9721622467041 13.71012306213379 25.23209381103516 12.84654235839844 C 25.537353515625 12.63733291625977 25.7187614440918 12.28995323181152 25.7187614440918 11.91990280151367 L 25.7187614440918 3.3734130859375 C 25.7187614440918 2.551002502441406 24.86555099487305 2.006884574890137 24.11968231201172 2.353312492370605 C 22.91248321533203 2.913983345031738 21.43184280395508 3.473182678222656 20.00815200805664 3.473182678222656 C 18.12423324584961 3.473182678222656 16.56832313537598 2.250343322753906 14.19974327087402 2.250343322753906 C 13.32241249084473 2.250343322753906 12.53653335571289 2.404462814331055 11.80753326416016 2.672673225402832 C 11.90856170654297 2.408812522888184 11.95156288146973 2.126293182373047 11.93360328674316 1.844322204589844 C 11.87130355834961 0.8446121215820312 11.05177307128906 0.04273223876953125 10.05094337463379 0.002023696899414062 C 10.02348327636719 0.0009059906005859375 9.995943069458008 0.0003490447998046875 9.968730926513672 0.0003490447998046875 M 9.968732833862305 -1.49964714050293 C 10.01617240905762 -1.49964714050293 10.0641918182373 -1.498687744140625 10.1120719909668 -1.496726989746094 C 10.96744346618652 -1.461936950683594 11.77765274047852 -1.110996246337891 12.39331245422363 -0.5085563659667969 C 12.77392196655273 -0.1361198425292969 13.06001472473145 0.3126792907714844 13.23559951782227 0.8030319213867188 C 13.55142211914062 0.7678012847900391 13.87222099304199 0.7503433227539062 14.19974327087402 0.7503433227539062 C 15.6951732635498 0.7503433227539062 16.87576293945312 1.143892288208008 17.91738128662109 1.491123199462891 C 18.69333267211914 1.749792098999023 19.36347198486328 1.973182678222656 20.00815200805664 1.973182678222656 C 20.9293212890625 1.973182678222656 22.06754302978516 1.652523040771484 23.48784255981445 0.9928836822509766 C 23.83882141113281 0.8298721313476562 24.21094131469727 0.7472133636474609 24.59386253356934 0.7472133636474609 C 26.04137229919434 0.7473621368408203 27.2187614440918 1.925472259521484 27.2187614440918 3.3734130859375 L 27.2187614440918 11.91990280151367 C 27.2187614440918 12.78623294830322 26.79308319091797 13.59518241882324 26.08008193969727 14.08384323120117 C 24.38885307312012 15.24304294586182 22.75086212158203 15.78296279907227 20.92527389526367 15.78296279907227 C 19.42985153198242 15.78296279907227 18.24926376342773 15.38941287994385 17.2076530456543 15.04218292236328 C 16.43170356750488 14.78351306915283 15.76155281066895 14.56012344360352 15.11686325073242 14.56012344360352 C 14.04169654846191 14.56012344360352 13.22838020324707 14.70465087890625 12.59375190734863 14.88908195495605 L 12.59375190734863 17.15660285949707 C 12.59375190734863 18.44895362854004 11.5423526763916 19.50035285949707 10.25000190734863 19.50035285949707 L 9.687501907348633 19.50035285949707 C 8.395153045654297 19.50035285949707 7.343751907348633 18.44895362854004 7.343751907348633 17.15660285949707 L 7.343751907348633 4.235627174377441 C 6.805864334106445 3.61231803894043 6.500001907348633 2.809677124023438 6.500001907348633 1.969093322753906 C 6.500001907348633 0.05642318725585938 8.056072235107422 -1.49964714050293 9.968732833862305 -1.49964714050293 Z"/></g></g></svg>