<svg xmlns="http://www.w3.org/2000/svg" width="16.5" height="21" viewBox="0 0 16.5 21"><defs><style>.a{fill:none;stroke-linecap:round;}.b,.c{stroke:none;}.c{fill:#127ac5;}</style></defs><g transform="translate(1.5 1.5)"><g class="a"><path class="b" d="M6.056,17.637C.948,10.232,0,9.472,0,6.75a6.75,6.75,0,0,1,13.5,0c0,2.722-.948,3.482-6.056,10.887a.844.844,0,0,1-1.387,0ZM6.75,9.562A2.812,2.812,0,1,0,3.937,6.75,2.812,2.812,0,0,0,6.75,9.562Z"/><path class="c" d="M 6.750003814697266 18 C 7.013022899627686 18 7.276113986968994 17.8789234161377 7.443698406219482 17.63682746887207 C 12.55182838439941 10.23155689239502 13.49999809265137 9.47154712677002 13.49999809265137 6.749997138977051 C 13.49999809265137 3.022067308425903 10.47792816162109 -2.661743110365933e-06 6.749998569488525 -2.661743110365933e-06 C 3.022068500518799 -2.661743110365933e-06 -1.430511474609375e-06 3.022067308425903 -1.430511474609375e-06 6.749997138977051 C -1.430511474609375e-06 9.47154712677002 0.9481685757637024 10.23155689239502 6.056298732757568 17.63682746887207 C 6.2239089012146 17.87896156311035 6.486920356750488 18 6.750003814697266 18 M 6.749998569488525 3.93749737739563 C 8.303308486938477 3.93749737739563 9.562498092651367 5.1966872215271 9.562498092651367 6.749997138977051 C 9.562498092651367 8.30330753326416 8.303308486938477 9.562497138977051 6.749998569488525 9.562497138977051 C 5.196688652038574 9.562497138977051 3.937498569488525 8.30330753326416 3.937498569488525 6.749997138977051 C 3.937498569488525 5.1966872215271 5.196688652038574 3.93749737739563 6.749998569488525 3.93749737739563 M 6.750008583068848 19.49999809265137 C 5.980888366699219 19.49999809265137 5.260498523712158 19.12264823913574 4.822968482971191 18.49057769775391 C 3.914008617401123 17.17286682128906 3.149088621139526 16.08315658569336 2.47420859336853 15.12172698974609 C -0.6581314206123352 10.65939712524414 -1.500001430511475 9.460067749023438 -1.500001430511475 6.749997138977051 C -1.500001430511475 2.200927257537842 2.200928688049316 -1.50000262260437 6.749998569488525 -1.50000262260437 C 11.29906845092773 -1.50000262260437 14.99999809265137 2.200927257537842 14.99999809265137 6.749997138977051 C 14.99999809265137 9.460067749023438 14.15812873840332 10.65939712524414 11.02578830718994 15.12172698974609 C 10.35090827941895 16.08315658569336 9.585988998413086 17.17286682128906 8.678438186645508 18.48854827880859 C 8.239528656005859 19.12263679504395 7.519138336181641 19.49999809265137 6.750008583068848 19.49999809265137 Z M 6.749998569488525 5.437497138977051 C 6.026288509368896 5.437497138977051 5.437498569488525 6.02628755569458 5.437498569488525 6.749997138977051 C 5.437498569488525 7.47370719909668 6.026288509368896 8.062497138977051 6.749998569488525 8.062497138977051 C 7.473708629608154 8.062497138977051 8.062498092651367 7.47370719909668 8.062498092651367 6.749997138977051 C 8.062498092651367 6.02628755569458 7.473708629608154 5.437497138977051 6.749998569488525 5.437497138977051 Z"/></g></g></svg>